# xmcd
#
# Track frame offsets:
#	150
#	20305
#	31766
#	44445
#	57568
#	70249
#	90257
#	111744
#	129313
#	140391
#	154727
#	163934
#	180666
#
# Disc length: 2655 seconds
#
# Revision: 0
# Processed by: cddbd v1.5.1PL0 Copyright (c) Steve Scherf et al.
# Submitted via: dBpowerAMP V4.0
#
DISCID=ae0a5d0d
DTITLE=Marcos Coll - Adrian Costa y los Homebreakers - Home made blues
DYEAR=2004
DGENRE=Blues
TTITLE0=Driftin
TTITLE1=Johnny Mazaricos
TTITLE2=Tributo a junior
TTITLE3=Love left behind
TTITLE4=Good things
TTITLE5=Crying for my baby
TTITLE6=I'm on the wonder
TTITLE7=Big road blues
TTITLE8=Blowing the blues
TTITLE9=Mis uñas hacen click (cuando voy descalzo por el pasillo)
TTITLE10=Man goin' round
TTITLE11=Glad I'm living
TTITLE12=Turkey on the barn
EXTD=
EXTT0=
EXTT1=
EXTT2=
EXTT3=
EXTT4=
EXTT5=
EXTT6=
EXTT7=
EXTT8=
EXTT9=
EXTT10=
EXTT11=
EXTT12=
PLAYORDER=
